<?xml version="1.0" encoding="UTF-8"?>
<svg id="Layer_1" xmlns="http://www.w3.org/2000/svg" version="1.1" viewBox="0 0 8.8 8.8">
  <!-- Generator: Adobe Illustrator 29.8.6, SVG Export Plug-In . SVG Version: 2.1.1 Build 1)  -->
  <defs>
    <style>
      .st0 {
        fill: #fff;
      }
    </style>
  </defs>
  <path class="st0" d="M4.4,0C2,0,0,2,0,4.4s2,4.4,4.4,4.4,4.4-2,4.4-4.4S6.8,0,4.4,0ZM4,5.9c0,.3-.2.5-.5.5s-.5-.2-.5-.5v-3.2c0-.3.2-.5.5-.5s.5.2.5.5v3.2ZM5.7,5.9c0,.3-.2.5-.5.5s-.5-.2-.5-.5v-3.2c0-.3.2-.5.5-.5s.5.2.5.5v3.2Z"/>
</svg>