<?xml version="1.0" encoding="UTF-8"?>
<svg id="Layer_1" data-name="Layer 1" xmlns="http://www.w3.org/2000/svg" viewBox="0 0 8.8 8.97">
  <path d="M8.4,4.26c-.2,0-.3.1-.3.3,0,2.1-1.7,3.8-3.8,3.8S.6,6.57.6,4.57,2.3.76,4.4.76s1.3.2,1.8.5l-.3.5c0,.1,0,.3.2.3h1.9c.1,0,.2-.1.2-.2L7.1.08c0-.1-.3-.1-.3,0l-.3.6c-.6-.4-1.4-.6-2.1-.6C2,.18,0,2.17,0,4.57s2,4.4,4.4,4.4,4.4-2,4.4-4.4-.1-.3-.3-.3h-.1Z" fill="#fff"/>
  <path d="M3.6,2.86c-.2-.1-.4,0-.4.3v2.9c0,.2.2.4.4.3l2.6-1.5c.2-.1.2-.4,0-.5l-2.6-1.5Z" fill="#fff"/>
</svg>