<?xml version="1.0" encoding="UTF-8"?>
<svg id="Layer_2" data-name="Layer 2" xmlns="http://www.w3.org/2000/svg" viewBox="0 0 8.35 8.35">
  <g id="Layer_1-2" data-name="Layer 1-2">
    <path d="M7.1,0H1.25C.56,0,0,.56,0,1.25v5.85c0,.69.56,1.25,1.25,1.25h5.85c.69,0,1.25-.56,1.25-1.25V1.25c0-.69-.56-1.25-1.25-1.25ZM7.74,7.1c0,.12-.04.22-.09.31l-2.95-2.95,1.76-1.76c.18-.18.18-.47,0-.66s-.47-.18-.66,0l-1.76,1.76.65.65-1.95,1.95c-.09.09-.21.14-.33.14s-.24-.04-.33-.14c-.18-.18-.18-.47,0-.66l1.95-1.95L.95.71c.09-.05.19-.09.3-.09h5.85c.35,0,.63.28.63.63v5.85h0Z" fill="#6bbd45"/>
  </g>
</svg>